<svg width="54" height="46" viewBox="0 0 54 46" fill="none" xmlns="http://www.w3.org/2000/svg">
<path d="M29.8199 10.8006H16.2172M29.8199 10.8006V9.66704C29.8199 6.45907 29.8199 4.85622 28.8224 3.86322C27.8271 2.86569 26.2265 2.86569 23.0185 2.86569C19.8106 2.86569 18.2077 2.86569 17.2147 3.86322C16.2172 4.85849 16.2172 6.46134 16.2172 9.66704V10.8006M29.8199 10.8006C31.4615 10.8006 32.8931 10.8006 34.148 10.834C35.3846 15.8501 35.7587 15.6041 37.2395 17.0867C42.186 19.5599 39.7128 18.9416 43.3731 19.5599C43.4226 20.9345 43.4226 22.5325 43.4226 24.4033V30.0711C43.4226 36.4825 43.4226 39.6905 41.4298 41.681C39.4393 43.6738 36.2313 43.6738 29.8199 43.6738H16.2172C9.80579 43.6738 6.59782 43.6738 4.6073 41.681C2.6145 39.6905 2.6145 36.4825 2.6145 30.0711V24.4033C2.6145 17.9919 2.6145 14.7839 4.6073 12.7934C6.59782 10.8006 9.80579 10.8006 16.2172 10.8006" stroke="white" stroke-width="3.40067" stroke-linecap="round" stroke-linejoin="round"/>
<path d="M43.4226 19.8691C41.0175 19.8691 38.7109 18.9136 37.0102 17.213C35.3096 15.5123 34.3541 13.2057 34.3541 10.8006" stroke="white" stroke-width="3.40067" stroke-linecap="round"/>
<path d="M16.784 23.2697L15.0837 24.9701L16.784 26.6704L18.4844 24.9701L16.784 23.2697Z" stroke="white" stroke-width="3.40067" stroke-linecap="round" stroke-linejoin="round"/>
<path d="M2.6145 34.6053C5.01961 34.6053 7.32621 35.5607 9.02687 37.2614C10.7275 38.9621 11.683 41.2687 11.683 43.6738M2.6145 19.8691C5.01961 19.8691 7.32621 18.9136 9.02687 17.213C10.7275 15.5123 11.683 13.2057 11.683 10.8006M43.4226 34.6053C41.0175 34.6053 38.7109 35.5607 37.0102 37.2614C35.3096 38.9621 34.3541 41.2687 34.3541 43.6738" stroke="white" stroke-width="3.40067" stroke-linecap="round"/>
<path d="M27.5528 34.1519L24.1521 33.4717L26.8726 30.7512L27.5528 34.1519Z" stroke="white" stroke-width="3.40067" stroke-linecap="round" stroke-linejoin="round"/>
<path d="M28.6864 21.0026V21.0232" stroke="white" stroke-width="5.66779" stroke-linecap="round" stroke-linejoin="round"/>
<path d="M46.3597 5.33295C49.9512 7.63629 51.0036 12.3899 48.7223 15.9471C46.441 19.5043 41.6817 20.5308 38.0902 18.2274C34.4989 15.924 33.4472 11.1709 35.7284 7.61379C38.0096 4.05675 42.7682 3.02989 46.3597 5.33295Z" fill="#21B346" stroke="white" stroke-width="1.23661"/>
<path d="M41.6388 14.1021C41.4316 14.3737 41.0228 14.3736 40.8157 14.1019L39.6138 12.5255C39.3927 12.2354 38.9563 12.2346 38.7342 12.524C38.5819 12.7223 38.5815 12.9981 38.7331 13.1969L40.4018 15.3858C40.8171 15.9306 41.6371 15.9306 42.0525 15.3858L46.8773 9.05695C47.028 8.85929 47.028 8.58531 46.8773 8.38765C46.6565 8.09797 46.2205 8.09787 45.9996 8.38745L41.6388 14.1021Z" fill="white"/>
</svg>
